# xmcd
#
# Track frame offsets: 
#        150
#        12087
#        20379
#        33280
#        41982
#        53113
#        64643
#        76284
#        86729
#        97578
#        109539
#        120537
#        131943
#        141674
#
# Disc length: 2019 seconds
#
# Revision: 0
# Processed by: cddbd v1.5.2PL0 Copyright (c) Steve Scherf et al.
# Submitted via: ExactAudioCopy v0.99pb3
#
DISCID=b307e10e
DTITLE=Jim Reeves - Jim Reeves - Mexican Joe
DYEAR=1900
DGENRE=Country
TTITLE0=Mexican Joe
TTITLE1=Bimbo
TTITLE2=Have I Told You Lately That I Love You 
TTITLE3=Breeze
TTITLE4=El Rancho Del Rio
TTITLE5=Roly Poly
TTITLE6=Highway To Nowhere
TTITLE7=Ichabod Crane
TTITLE8=Love Me A Little Bit More
TTITLE9=Beyond A Shadow Of A Doubt
TTITLE10=Oklahoma Hills
TTITLE11=Each Time You Leave
TTITLE12=Tweedle O ' Twill
TTITLE13=Waltzing On Top Of The World
EXTD=
EXTT0=
EXTT1=
EXTT2=
EXTT3=
EXTT4=
EXTT5=
EXTT6=
EXTT7=
EXTT8=
EXTT9=
EXTT10=
EXTT11=
EXTT12=
EXTT13=
PLAYORDER=
